<svg xmlns="http://www.w3.org/2000/svg" viewBox="0 0 24 24"><title>iconmonstr-github-3</title><path d="M19,0H5A5,5,0,0,0,0,5V19a5,5,0,0,0,5,5H19a5,5,0,0,0,5-5V5A5,5,0,0,0,19,0ZM14.53,19.59A0.39,0.39,0,0,1,14,19.21V17a1.91,1.91,0,0,0-.55-1.48c1.78-.2,3.65-0.87,3.65-3.95a3.09,3.09,0,0,0-.82-2.15,2.88,2.88,0,0,0-.08-2.12s-0.67-.22-2.2.82a7.57,7.57,0,0,0-4,0c-1.53-1-2.2-.82-2.2-0.82a2.88,2.88,0,0,0-.08,2.12,3.09,3.09,0,0,0-.82,2.15c0,3.06,1.87,3.75,3.65,4A1.7,1.7,0,0,0,10,16.61a1.7,1.7,0,0,1-2.33-.67,1.68,1.68,0,0,0-1.23-.82s-0.78,0-.05.49a2.12,2.12,0,0,1,.89,1.17s0.46,1.43,2.69.94V19.2a0.39,0.39,0,0,1-.53.39A8,8,0,1,1,14.53,19.59Z"/></svg>