<svg xmlns="http://www.w3.org/2000/svg" viewBox="0 0 24 24"><title>iconmonstr-twitter-3</title><path d="M19,0H5A5,5,0,0,0,0,5V19a5,5,0,0,0,5,5H19a5,5,0,0,0,5-5V5A5,5,0,0,0,19,0ZM18.86,9.24A9.34,9.34,0,0,1,4.5,17.53a6.6,6.6,0,0,0,4.86-1.36,3.29,3.29,0,0,1-3.07-2.28,3.3,3.3,0,0,0,1.48-.06,3.29,3.29,0,0,1-2.63-3.26A3.27,3.27,0,0,0,6.63,11a3.29,3.29,0,0,1-1-4.38A9.32,9.32,0,0,0,12.38,10,3.28,3.28,0,0,1,18,7a6.58,6.58,0,0,0,2.09-.8,3.3,3.3,0,0,1-1.44,1.82,6.58,6.58,0,0,0,1.89-.52A6.66,6.66,0,0,1,18.86,9.24Z"/></svg>